<?xml version="1.0" encoding="utf-8"?>
<!-- Generator: Adobe Illustrator 28.1.0, SVG Export Plug-In . SVG Version: 6.00 Build 0)  -->
<svg version="1.1" id="Layer_1" xmlns="http://www.w3.org/2000/svg" xmlns:xlink="http://www.w3.org/1999/xlink" x="0px" y="0px"
	 viewBox="0 0 543 150" style="enable-background:new 0 0 543 150;" xml:space="preserve">
<style type="text/css">
	.st0{fill:#FFFFFF;}
	.st1{fill:#91B50D;}
	.st2{fill:#FDFEF9;}
</style>
<g>
	<rect class="st0" width="543" height="150"/>
</g>
<rect class="st1" width="234" height="150"/>
<g>
	<path class="st2" d="M47.9,52.41c0-3.85,0-7.69,0-11.54v-1.05V37.5h10.57c3.59,0,6.48,0.77,8.65,2.3c2.18,1.53,3.26,4.02,3.26,7.47
		c0,2.25-0.53,4.14-1.58,5.68c-1.05,1.54-2.47,2.69-4.25,3.43c-1.78,0.74-3.76,1.12-5.92,1.12H55.1c0,2.16,0,4.32,0,6.49v1.05v2.32
		h-7.2v-2.32v-1.05C47.9,60.11,47.9,56.25,47.9,52.41z M62.07,50.6c0.86-0.79,1.28-1.89,1.28-3.33c0-1.46-0.44-2.5-1.31-3.12
		c-0.87-0.62-2.2-0.93-4-0.93H55.1c0,2.84,0,5.68,0,8.55h3.16C59.94,51.78,61.21,51.38,62.07,50.6z"/>
	<path class="st2" d="M77.96,66.47c-1.77-0.95-3.16-2.33-4.17-4.13c-1.01-1.8-1.52-3.93-1.52-6.4c0-2.36,0.51-4.44,1.54-6.25
		s2.37-3.21,4.04-4.21c1.67-1,3.43-1.49,5.28-1.49c2.13,0,3.93,0.48,5.39,1.43c1.46,0.95,2.56,2.26,3.31,3.92
		c0.74,1.66,1.12,3.54,1.12,5.64c0,0.59-0.04,1.19-0.11,1.79c-0.07,0.6-0.15,1.05-0.23,1.33H77.96l-0.08-4.72h7.45
		c0.34,0,0.58,0,0.74,0c0.15,0,0.4,0,0.74,0c0-1.21-0.28-2.16-0.84-2.86c-0.56-0.7-1.45-1.05-2.65-1.05c-0.79,0-1.52,0.21-2.19,0.63
		c-0.67,0.42-1.22,1.12-1.64,2.08s-0.6,2.23-0.55,3.77c0.06,2.36,0.65,4.03,1.79,5.01c1.14,0.98,2.53,1.47,4.19,1.47
		c1.6,0,3.24-0.48,4.93-1.43l2.27,4.29c-1.18,0.81-2.5,1.45-3.96,1.92c-1.46,0.46-2.86,0.69-4.21,0.69
		C81.72,67.9,79.73,67.43,77.96,66.47z"/>
	<path class="st2" d="M97.04,55.48c0-2.53,0-5.05,0-7.58v-1.05v-2.32h5.85h0.04l0.46,4h0.17c0.81-1.49,1.8-2.62,2.95-3.39
		c1.15-0.77,2.33-1.16,3.54-1.16c0.67,0,1.23,0.04,1.68,0.11c0.45,0.07,0.81,0.19,1.09,0.36c-0.31,1.38-0.53,2.4-0.67,3.07
		c-0.14,0.67-0.37,1.68-0.67,3.03c-0.17-0.06-0.35-0.1-0.55-0.13c-0.2-0.03-0.41-0.06-0.63-0.08c-0.22-0.03-0.62-0.04-1.18-0.04
		c-0.95,0-1.88,0.32-2.78,0.97c-0.9,0.65-1.61,1.67-2.15,3.07v2.53c0,2.36,0,4.73,0,7.12v1.05v2.32h-7.16v-2.32v-1.05
		C97.04,61.15,97.04,58.32,97.04,55.48z"/>
	<path class="st2" d="M115.78,63.99V40.87v-1.05V37.5h7.83l4.67,12.89c0.34,0.87,0.9,2.65,1.68,5.35h0.17
		c0.31-1.01,0.51-1.67,0.59-1.98c0.45-1.52,0.81-2.64,1.1-3.37l4.51-12.89h7.79v2.32v1.05c0,3.85,0,7.69,0,11.54
		c0,3.85,0,7.71,0,11.58v1.05v2.32h-6.53v-2.32v-1.05c0-2.25,0-4.48,0-6.7c0-2.44,0.29-6.16,0.88-11.16h-0.17l-2.44,7.87l-4,10.82
		h-3.96l-4-10.82l-2.36-7.87h-0.21c0.62,5.25,0.93,8.97,0.93,11.16v6.7v1.05v2.32h-6.49v-2.32V63.99z"/>
	<path class="st2" d="M154.39,66.47c-1.77-0.95-3.16-2.33-4.17-4.13c-1.01-1.8-1.52-3.93-1.52-6.4c0-2.36,0.51-4.44,1.54-6.25
		s2.37-3.21,4.04-4.21c1.67-1,3.43-1.49,5.28-1.49c2.13,0,3.93,0.48,5.39,1.43c1.46,0.95,2.56,2.26,3.31,3.92
		c0.74,1.66,1.12,3.54,1.12,5.64c0,0.59-0.04,1.19-0.11,1.79c-0.07,0.6-0.15,1.05-0.23,1.33h-14.65l-0.08-4.72h7.45
		c0.34,0,0.58,0,0.74,0c0.15,0,0.4,0,0.74,0c0-1.21-0.28-2.16-0.84-2.86c-0.56-0.7-1.45-1.05-2.65-1.05c-0.79,0-1.52,0.21-2.19,0.63
		c-0.67,0.42-1.22,1.12-1.64,2.08s-0.6,2.23-0.55,3.77c0.06,2.36,0.65,4.03,1.79,5.01c1.14,0.98,2.53,1.47,4.19,1.47
		c1.6,0,3.24-0.48,4.93-1.43l2.27,4.29c-1.18,0.81-2.5,1.45-3.96,1.92c-1.46,0.46-2.86,0.69-4.21,0.69
		C158.16,67.9,156.16,67.43,154.39,66.47z"/>
	<path class="st2" d="M175.98,65.46c-1.33-1.6-2-3.8-2-6.61v-0.97c0-0.53,0-0.93,0-1.18c0-0.25,0-0.63,0-1.14v-5.39h-3.07v-5.35
		l3.5-0.29l0.84-6.91h5.94v6.91h5.39v5.64h-5.39v8.55c0,1.24,0.26,2.13,0.78,2.7c0.52,0.56,1.21,0.84,2.08,0.84
		c0.39,0,0.76-0.03,1.12-0.08c0.35-0.06,0.68-0.14,0.99-0.25l1.14,5.01c-0.65,0.25-1.42,0.47-2.32,0.65
		c-0.9,0.18-1.87,0.27-2.91,0.27C179.34,67.86,177.31,67.06,175.98,65.46z"/>
	<path class="st2" d="M52.7,102.22c-1.91-1.23-3.38-2.97-4.42-5.2c-1.04-2.23-1.56-4.81-1.56-7.73c0-3.03,0.55-5.67,1.66-7.92
		c1.11-2.25,2.63-3.97,4.57-5.18c1.94-1.21,4.11-1.81,6.53-1.81c1.66,0,3.16,0.33,4.53,0.99c1.36,0.66,2.49,1.51,3.39,2.55
		l-2.02,2.32h-0.04c-0.42-0.45-0.84-0.81-1.26-1.09c-1.29-0.95-2.79-1.43-4.51-1.43c-1.77,0-3.33,0.47-4.67,1.41
		c-1.35,0.94-2.39,2.27-3.14,4c-0.74,1.73-1.12,3.74-1.12,6.04c0,2.36,0.36,4.41,1.1,6.15c0.73,1.74,1.77,3.08,3.12,4.02
		c1.35,0.94,2.92,1.41,4.72,1.41c2.08,0,3.89-0.65,5.43-1.94c0.34-0.25,0.69-0.59,1.05-1.01h0.04l1.94,2.19
		c-1.18,1.35-2.48,2.37-3.9,3.05c-1.42,0.69-3.03,1.03-4.82,1.03C56.81,104.08,54.61,103.46,52.7,102.22z"/>
	<path class="st2" d="M75.96,102.75c-1.5-0.88-2.7-2.17-3.6-3.85c-0.9-1.68-1.35-3.66-1.35-5.94c0-2.27,0.45-4.25,1.35-5.94
		c0.9-1.68,2.1-2.98,3.6-3.87c1.5-0.9,3.14-1.35,4.91-1.35c1.77,0,3.4,0.45,4.91,1.35c1.5,0.9,2.71,2.19,3.62,3.87
		c0.91,1.68,1.37,3.66,1.37,5.94c0,2.27-0.46,4.25-1.37,5.94c-0.91,1.68-2.12,2.97-3.62,3.85c-1.5,0.88-3.14,1.33-4.91,1.33
		C79.1,104.08,77.46,103.64,75.96,102.75z M84.03,100.01c0.9-0.66,1.6-1.6,2.11-2.82c0.51-1.22,0.76-2.63,0.76-4.23
		c0-1.57-0.25-2.97-0.76-4.19c-0.5-1.22-1.21-2.17-2.11-2.84c-0.9-0.67-1.95-1.01-3.16-1.01c-1.77,0-3.21,0.74-4.32,2.23
		c-1.11,1.49-1.66,3.43-1.66,5.81c0,1.6,0.25,3,0.76,4.21c0.51,1.21,1.21,2.15,2.11,2.82c0.9,0.67,1.94,1.01,3.12,1.01
		C82.08,101,83.13,100.67,84.03,100.01z"/>
	<path class="st2" d="M95.86,91.99c0-2.53,0-5.05,0-7.58v-0.84v-1.26h3.03h0.04l0.34,3.87h0.08c0.76-1.38,1.66-2.45,2.69-3.22
		c1.04-0.77,2.16-1.16,3.37-1.16c0.51,0,0.93,0.03,1.28,0.08c0.35,0.06,0.68,0.17,0.99,0.34c-0.17,0.73-0.3,1.27-0.4,1.62
		c-0.1,0.35-0.23,0.88-0.4,1.58c-0.14-0.06-0.29-0.1-0.46-0.13c-0.17-0.03-0.34-0.06-0.51-0.08c-0.2-0.03-0.53-0.04-1.01-0.04
		c-0.98,0-1.94,0.39-2.88,1.16c-0.94,0.77-1.75,2-2.42,3.68v3.79c0,2.56,0,5.11,0,7.66v0.84v1.26h-3.75v-1.26v-0.84
		C95.86,98.29,95.86,95.14,95.86,91.99z"/>
	<path class="st2" d="M110.73,103.24V91.57c0-2.39,0-4.77,0-7.16v-0.84v-1.26h3.03h0.04l0.34,2.44h0.08
		c1.04-0.9,2.14-1.61,3.31-2.15c1.16-0.53,2.32-0.8,3.47-0.8c1.8,0,3.32,0.44,4.57,1.33c1.25,0.88,2.2,2.14,2.84,3.77
		c0.65,1.63,0.97,3.54,0.97,5.73c0,2.33-0.42,4.36-1.26,6.09c-0.84,1.73-1.97,3.05-3.37,3.98c-1.4,0.93-2.92,1.39-4.55,1.39
		c-1.83,0-3.78-0.81-5.85-2.44l0.13,3.71c0,1.68,0,3.37,0,5.05v0.84v1.26h-3.75v-1.26v-0.84
		C110.73,108.01,110.73,105.62,110.73,103.24z M117.13,100.44c0.87,0.35,1.67,0.53,2.4,0.53c1.77,0,3.21-0.75,4.34-2.25
		c1.12-1.5,1.68-3.52,1.68-6.04c0-2.41-0.45-4.3-1.35-5.66c-0.9-1.36-2.29-2.04-4.17-2.04c-0.84,0-1.72,0.23-2.63,0.69
		c-0.91,0.46-1.89,1.17-2.93,2.13v11.03C115.37,99.54,116.26,100.08,117.13,100.44z"/>
	<path class="st2" d="M135.87,101.97c-1.07-1.4-1.6-3.47-1.6-6.19V84.41v-0.84v-1.26h3.75v0.04v6.27v6.7c0,1.94,0.32,3.35,0.95,4.23
		c0.63,0.88,1.64,1.33,3.01,1.33c1.04,0,1.97-0.27,2.8-0.82c0.83-0.55,1.75-1.45,2.76-2.72V84.41v-0.84v-1.26h3.75v0.04v6.27v12.84
		v0.84v1.26h-3.07l-0.29-3.33h-0.17c-1.04,1.26-2.11,2.22-3.2,2.86c-1.09,0.65-2.34,0.97-3.75,0.97
		C138.57,104.08,136.93,103.38,135.87,101.97z"/>
	<path class="st2" d="M159.15,103.28c-1.38-0.53-2.56-1.28-3.54-2.23l1.64-2.19h0.04c0.56,0.45,1,0.76,1.31,0.93
		c1.52,0.95,3.2,1.43,5.05,1.43c1.32,0,2.34-0.31,3.05-0.93c0.72-0.62,1.07-1.39,1.07-2.32c0-0.67-0.22-1.24-0.65-1.71
		c-0.44-0.46-0.96-0.85-1.58-1.16c-0.62-0.31-1.46-0.66-2.53-1.05l-0.34-0.13c-1.94-0.73-3.4-1.55-4.4-2.46
		c-1-0.91-1.49-2.11-1.49-3.6c0-1.32,0.34-2.44,1.01-3.35c0.67-0.91,1.57-1.59,2.7-2.04c1.12-0.45,2.33-0.67,3.62-0.67
		c1.32,0,2.55,0.22,3.71,0.65c1.15,0.44,2.15,1.02,2.99,1.75l-1.68,2.19h-0.04c-0.45-0.34-0.91-0.63-1.39-0.88
		c-1.12-0.53-2.29-0.8-3.5-0.8c-1.09,0-2.01,0.25-2.74,0.76c-0.73,0.51-1.09,1.24-1.09,2.19c0,0.62,0.17,1.13,0.53,1.54
		c0.35,0.41,0.81,0.75,1.39,1.03c0.57,0.28,1.42,0.63,2.55,1.05l0.34,0.13c1.26,0.48,2.32,0.95,3.16,1.41
		c0.84,0.46,1.56,1.1,2.15,1.92c0.59,0.81,0.88,1.83,0.88,3.03c0,1.18-0.31,2.25-0.93,3.2c-0.62,0.95-1.52,1.71-2.69,2.27
		s-2.58,0.84-4.21,0.84C161.99,104.08,160.53,103.81,159.15,103.28z"/>
</g>
<g>
	<g>
		<path class="st1" d="M269.14,56.14l5.56-16.45h2.66l5.51,16.47l0.18,0.5l0.29,0.78h-2.48l-0.23-0.78l-0.18-0.52l-1.23-4.05h-6.45
			l-1.25,4.05l-0.18,0.52l-0.23,0.78h-2.4l0.26-0.78L269.14,56.14z M276.64,43.66c-0.19-0.7-0.39-1.38-0.6-2.06h-0.1
			c-0.66,2.45-1.52,5.33-2.58,8.62h5.27C277.75,47.41,277.09,45.22,276.64,43.66z"/>
		<path class="st1" d="M291.02,48.57c0-2.52,0-5.05,0-7.57v-0.52v-0.78h2.35v0.78v0.52c0,2.52,0,5.05,0,7.57c0,2.3,0,4.6,0,6.89
			h6.42h0.52h0.78v1.98h-10.08v-0.78v-0.52C291.02,53.61,291.02,51.09,291.02,48.57z"/>
		<path class="st1" d="M305.06,57.31c-0.58-0.3-1.04-0.73-1.37-1.29c-0.33-0.57-0.5-1.23-0.5-2c0-0.96,0.28-1.76,0.85-2.42
			c0.57-0.65,1.44-1.18,2.62-1.58c1.18-0.4,2.72-0.7,4.6-0.91v-0.26c0-0.52-0.08-1.01-0.25-1.46c-0.17-0.45-0.45-0.82-0.85-1.11
			c-0.4-0.29-0.93-0.43-1.59-0.43c-0.61,0-1.21,0.1-1.8,0.3c-0.59,0.2-1.21,0.49-1.85,0.87c-0.05,0.04-0.1,0.06-0.13,0.08
			c-0.04,0.02-0.08,0.04-0.13,0.08c-0.21-0.35-0.36-0.6-0.46-0.77c-0.1-0.16-0.24-0.41-0.43-0.74c0.47-0.31,0.97-0.6,1.5-0.85
			c0.53-0.25,1.11-0.46,1.75-0.63c0.63-0.17,1.28-0.25,1.95-0.25c1.57,0,2.72,0.48,3.47,1.44c0.75,0.96,1.12,2.29,1.12,3.99v6.76
			v0.52v0.78h-1.91l-0.18-1.57h-0.08c-0.68,0.57-1.38,1.03-2.1,1.37c-0.72,0.34-1.47,0.51-2.23,0.51
			C306.3,57.76,305.64,57.61,305.06,57.31z M309.44,55.5c0.53-0.27,1.14-0.7,1.81-1.29v-3.6c-2.09,0.26-3.58,0.65-4.46,1.17
			c-0.89,0.52-1.33,1.21-1.33,2.06c0,0.66,0.2,1.17,0.61,1.53c0.41,0.36,0.96,0.54,1.66,0.54C308.34,55.9,308.91,55.77,309.44,55.5z
			"/>
		<path class="st1" d="M317.68,50.26c0-1.57,0-3.13,0-4.7v-0.52v-0.78h1.88h0.03l0.21,2.4h0.05c0.47-0.85,1.03-1.52,1.67-2
			c0.64-0.48,1.34-0.72,2.09-0.72c0.31,0,0.58,0.02,0.8,0.05c0.22,0.03,0.42,0.1,0.61,0.21c-0.1,0.45-0.19,0.79-0.25,1.01
			c-0.06,0.22-0.14,0.54-0.25,0.98c-0.09-0.03-0.18-0.06-0.29-0.08c-0.1-0.02-0.21-0.03-0.31-0.05c-0.12-0.02-0.33-0.03-0.63-0.03
			c-0.61,0-1.21,0.24-1.79,0.72c-0.58,0.48-1.08,1.24-1.5,2.28v2.35c0,1.58,0,3.17,0,4.75v0.52v0.78h-2.32v-0.78v-0.52
			C317.68,54.17,317.68,52.21,317.68,50.26z"/>
		<path class="st1" d="M327.41,62.53c-1-0.63-1.5-1.49-1.5-2.58c0-0.56,0.17-1.09,0.51-1.59c0.34-0.51,0.81-0.96,1.42-1.36v-0.1
			c-0.35-0.24-0.63-0.54-0.85-0.9c-0.22-0.36-0.33-0.78-0.33-1.27c0-0.5,0.14-0.97,0.43-1.4c0.29-0.43,0.62-0.78,1.01-1.06v-0.1
			c-0.47-0.38-0.87-0.89-1.2-1.51c-0.33-0.63-0.5-1.3-0.5-2.01c0-0.94,0.23-1.77,0.68-2.48c0.45-0.71,1.06-1.26,1.81-1.64
			c0.76-0.38,1.58-0.57,2.47-0.57c0.37,0,0.71,0.03,1.03,0.08c0.32,0.05,0.6,0.13,0.85,0.24h4.07h0.52v1.78h-2.71v0.13
			c0.73,0.64,1.1,1.5,1.1,2.56c0,0.92-0.21,1.73-0.64,2.42c-0.43,0.69-1.01,1.21-1.75,1.58s-1.56,0.55-2.47,0.55
			c-0.57,0-1.22-0.15-1.93-0.44c-0.26,0.21-0.46,0.44-0.6,0.68c-0.14,0.24-0.21,0.53-0.21,0.86c0,0.44,0.17,0.77,0.52,1.02
			c0.35,0.24,0.93,0.37,1.75,0.37h2.53c1.57,0,2.73,0.26,3.5,0.77c0.77,0.51,1.15,1.31,1.15,2.39c0,0.82-0.28,1.58-0.84,2.27
			c-0.56,0.7-1.34,1.25-2.36,1.67c-1.02,0.42-2.19,0.63-3.51,0.63C329.72,63.47,328.41,63.16,327.41,62.53z M328.24,58.49
			c-0.22,0.37-0.33,0.75-0.33,1.15c0,0.7,0.34,1.25,1.02,1.66c0.68,0.41,1.6,0.61,2.77,0.61c0.78,0,1.49-0.12,2.11-0.37
			c0.63-0.24,1.11-0.57,1.46-0.98c0.35-0.41,0.52-0.84,0.52-1.29c0-0.57-0.21-0.99-0.64-1.24c-0.43-0.25-1.08-0.38-1.97-0.38h-2.25
			c-0.59,0-1.16-0.06-1.7-0.18C328.79,57.78,328.46,58.12,328.24,58.49z M333.33,50.88c0.53-0.57,0.8-1.31,0.8-2.23
			c0-0.91-0.25-1.64-0.76-2.19c-0.51-0.56-1.17-0.84-2.01-0.84c-0.84,0-1.5,0.28-2,0.84c-0.5,0.56-0.74,1.29-0.74,2.19
			c0,0.91,0.27,1.64,0.81,2.22c0.54,0.57,1.18,0.86,1.93,0.86C332.14,51.72,332.8,51.44,333.33,50.88z"/>
		<path class="st1" d="M342.38,56.92c-0.96-0.56-1.71-1.35-2.27-2.39c-0.56-1.04-0.84-2.26-0.84-3.67c0-1.36,0.28-2.56,0.84-3.62
			c0.56-1.05,1.29-1.87,2.21-2.44c0.91-0.57,1.88-0.86,2.89-0.86c1.11,0,2.07,0.25,2.86,0.76c0.79,0.51,1.39,1.22,1.8,2.15
			c0.41,0.93,0.61,2.02,0.61,3.28c0,0.24,0,0.48-0.01,0.72c-0.01,0.24-0.04,0.42-0.09,0.56h-9.4v-1.64h6.29c0.26,0,0.46,0,0.59,0
			c0.13,0,0.33,0,0.59,0c0-1.29-0.27-2.28-0.82-2.96c-0.55-0.69-1.34-1.03-2.36-1.03c-0.64,0-1.26,0.18-1.84,0.55
			c-0.58,0.37-1.05,0.93-1.41,1.7c-0.36,0.77-0.54,1.71-0.54,2.82c0.02,1.64,0.44,2.89,1.28,3.77c0.84,0.88,1.88,1.32,3.13,1.32
			c1.18,0,2.28-0.32,3.29-0.97l0.78,1.44c-0.63,0.42-1.3,0.75-2.01,0.99c-0.71,0.24-1.5,0.37-2.35,0.37
			C344.41,57.76,343.34,57.48,342.38,56.92z"/>
		<path class="st1" d="M353.58,53.92l0.13-1.96h10.31l-0.13,1.96H353.58z"/>
		<path class="st1" d="M370.05,57.06c-1.06-0.46-2-1.11-2.82-1.94l1.31-1.51h0.03c0.23,0.24,0.52,0.51,0.89,0.78
			c0.57,0.42,1.21,0.74,1.91,0.97c0.7,0.23,1.41,0.34,2.14,0.34c1.15,0,2.05-0.26,2.7-0.77c0.65-0.51,0.98-1.2,0.98-2.05
			c0-0.56-0.12-1.02-0.37-1.38c-0.24-0.37-0.56-0.66-0.94-0.89c-0.38-0.23-0.93-0.5-1.64-0.81l-2.53-1.1
			c-0.66-0.3-1.26-0.64-1.79-1.02c-0.53-0.38-0.97-0.87-1.31-1.48c-0.34-0.6-0.51-1.3-0.51-2.1c0-0.89,0.24-1.7,0.72-2.43
			c0.48-0.73,1.14-1.3,2-1.71c0.85-0.41,1.82-0.61,2.9-0.61c1.04,0,2.02,0.2,2.92,0.59c0.9,0.39,1.68,0.92,2.32,1.58l-1.2,1.51
			h-0.03c-0.21-0.19-0.52-0.43-0.94-0.71c-0.98-0.61-2-0.91-3.08-0.91c-0.98,0-1.76,0.23-2.36,0.69c-0.6,0.46-0.9,1.08-0.9,1.87
			c0,0.66,0.22,1.19,0.65,1.58c0.44,0.39,1.05,0.76,1.85,1.11c0.16,0.05,0.3,0.11,0.44,0.18l2.51,1.1c0.78,0.33,1.44,0.7,1.96,1.1
			c0.52,0.4,0.94,0.9,1.24,1.5c0.3,0.6,0.46,1.32,0.46,2.15c0,0.94-0.24,1.8-0.73,2.57c-0.49,0.77-1.19,1.38-2.12,1.83
			c-0.92,0.44-2,0.67-3.24,0.67C372.26,57.76,371.12,57.52,370.05,57.06z"/>
		<path class="st1" d="M384.83,56.93c-0.94-0.55-1.68-1.34-2.22-2.38c-0.54-1.04-0.81-2.27-0.81-3.69c0-1.41,0.29-2.64,0.87-3.68
			c0.58-1.04,1.36-1.84,2.32-2.4c0.97-0.56,2.02-0.84,3.17-0.84c0.56,0,1.07,0.06,1.54,0.2c0.47,0.13,0.9,0.31,1.28,0.54
			c0.38,0.23,0.73,0.5,1.04,0.81c-0.26,0.31-0.45,0.55-0.57,0.71c-0.12,0.16-0.31,0.39-0.57,0.7c-0.07-0.07-0.14-0.13-0.22-0.2
			c-0.08-0.06-0.15-0.12-0.22-0.17c-0.31-0.23-0.65-0.39-1.02-0.5c-0.37-0.1-0.75-0.16-1.15-0.16c-0.77,0-1.46,0.21-2.08,0.63
			c-0.62,0.42-1.11,1.01-1.46,1.76c-0.36,0.76-0.54,1.62-0.54,2.6c0,1.5,0.37,2.7,1.11,3.62c0.74,0.91,1.71,1.37,2.91,1.37
			c0.57,0,1.12-0.11,1.64-0.33c0.52-0.22,0.98-0.52,1.38-0.9l1.02,1.41c-0.56,0.54-1.2,0.96-1.92,1.27
			c-0.72,0.3-1.49,0.46-2.31,0.46C386.84,57.76,385.77,57.48,384.83,56.93z"/>
		<path class="st1" d="M395.91,57.31c-0.58-0.3-1.04-0.73-1.37-1.29c-0.33-0.57-0.5-1.23-0.5-2c0-0.96,0.28-1.76,0.85-2.42
			c0.57-0.65,1.44-1.18,2.62-1.58c1.18-0.4,2.71-0.7,4.6-0.91v-0.26c0-0.52-0.08-1.01-0.25-1.46c-0.17-0.45-0.45-0.82-0.85-1.11
			c-0.4-0.29-0.93-0.43-1.59-0.43c-0.61,0-1.21,0.1-1.8,0.3c-0.59,0.2-1.21,0.49-1.85,0.87c-0.05,0.04-0.1,0.06-0.13,0.08
			c-0.04,0.02-0.08,0.04-0.13,0.08c-0.21-0.35-0.36-0.6-0.46-0.77c-0.1-0.16-0.24-0.41-0.43-0.74c0.47-0.31,0.97-0.6,1.5-0.85
			c0.53-0.25,1.11-0.46,1.75-0.63c0.63-0.17,1.28-0.25,1.94-0.25c1.57,0,2.72,0.48,3.47,1.44c0.75,0.96,1.12,2.29,1.12,3.99v6.76
			v0.52v0.78h-1.91l-0.18-1.57h-0.08c-0.68,0.57-1.38,1.03-2.1,1.37c-0.72,0.34-1.47,0.51-2.23,0.51
			C397.16,57.76,396.5,57.61,395.91,57.31z M400.3,55.5c0.53-0.27,1.14-0.7,1.81-1.29v-3.6c-2.09,0.26-3.58,0.65-4.46,1.17
			c-0.89,0.52-1.33,1.21-1.33,2.06c0,0.66,0.2,1.17,0.61,1.53c0.41,0.36,0.96,0.54,1.66,0.54C399.2,55.9,399.77,55.77,400.3,55.5z"
			/>
		<path class="st1" d="M409.48,57.29c-0.63-0.47-0.94-1.35-0.94-2.64V39.48v-0.52v-0.78h2.32v0.03v4.15v12.48
			c0,0.31,0.06,0.55,0.18,0.7c0.12,0.16,0.28,0.24,0.47,0.24l0.47-0.05l0.29,1.75c-0.38,0.16-0.82,0.24-1.31,0.24
			C410.34,57.7,409.84,57.56,409.48,57.29z"/>
		<path class="st1" d="M417.62,56.92c-0.96-0.56-1.71-1.35-2.27-2.39c-0.56-1.04-0.84-2.26-0.84-3.67c0-1.36,0.28-2.56,0.84-3.62
			c0.56-1.05,1.29-1.87,2.21-2.44c0.91-0.57,1.88-0.86,2.89-0.86c1.11,0,2.07,0.25,2.86,0.76c0.79,0.51,1.39,1.22,1.8,2.15
			c0.41,0.93,0.61,2.02,0.61,3.28c0,0.24,0,0.48-0.01,0.72c-0.01,0.24-0.04,0.42-0.09,0.56h-9.4v-1.64h6.29c0.26,0,0.46,0,0.59,0
			c0.13,0,0.33,0,0.59,0c0-1.29-0.27-2.28-0.82-2.96c-0.55-0.69-1.34-1.03-2.36-1.03c-0.64,0-1.26,0.18-1.84,0.55
			c-0.58,0.37-1.05,0.93-1.41,1.7c-0.36,0.77-0.54,1.71-0.54,2.82c0.02,1.64,0.44,2.89,1.28,3.77c0.84,0.88,1.88,1.32,3.13,1.32
			c1.18,0,2.28-0.32,3.29-0.97l0.78,1.44c-0.63,0.42-1.3,0.75-2.01,0.99c-0.71,0.24-1.5,0.37-2.35,0.37
			C419.65,57.76,418.58,57.48,417.62,56.92z"/>
		<path class="st1" d="M271.05,80.56V65.42V64.9v-0.78h2.82l3.37,9.4c0.45,1.2,0.87,2.43,1.25,3.68h0.1
			c0.23-0.66,0.44-1.32,0.65-1.98c0.19-0.57,0.38-1.14,0.57-1.7l3.34-9.4h2.79v0.78v0.52c0,2.52,0,5.05,0,7.57c0,2.52,0,5.05,0,7.57
			v0.52v0.78h-2.17v-0.78v-0.52c0-2.77,0-5.54,0-8.3c0-1.37,0.1-3.21,0.29-5.51h-0.1l-1.41,4.26l-3.32,9.09h-1.54l-3.32-9.09
			l-1.41-4.26h-0.1c0.21,2.51,0.31,4.34,0.31,5.51v8.3v0.52v0.78h-2.14v-0.78V80.56z"/>
		<path class="st1" d="M292.69,81.34c-0.96-0.56-1.71-1.35-2.27-2.39c-0.56-1.04-0.84-2.26-0.84-3.67c0-1.36,0.28-2.56,0.84-3.62
			c0.56-1.05,1.29-1.87,2.21-2.44c0.91-0.57,1.88-0.86,2.89-0.86c1.11,0,2.07,0.25,2.86,0.76c0.79,0.51,1.39,1.22,1.8,2.15
			c0.41,0.93,0.61,2.02,0.61,3.28c0,0.24,0,0.48-0.01,0.72c-0.01,0.24-0.04,0.42-0.09,0.56h-9.4v-1.64h6.29c0.26,0,0.46,0,0.59,0
			c0.13,0,0.33,0,0.59,0c0-1.29-0.27-2.28-0.82-2.96c-0.55-0.69-1.34-1.03-2.36-1.03c-0.64,0-1.26,0.18-1.84,0.55
			c-0.58,0.37-1.05,0.93-1.41,1.7c-0.36,0.77-0.54,1.71-0.54,2.82c0.02,1.64,0.44,2.89,1.28,3.77c0.84,0.88,1.88,1.32,3.13,1.32
			c1.18,0,2.28-0.32,3.29-0.97l0.78,1.44c-0.63,0.42-1.3,0.75-2.01,0.99c-0.71,0.24-1.5,0.37-2.35,0.37
			C294.72,82.18,293.65,81.9,292.69,81.34z"/>
		<path class="st1" d="M305.03,80.95c-0.6-0.78-0.9-1.87-0.9-3.26v-0.78c0-0.42,0-0.73,0-0.93c0-0.2,0-0.5,0-0.9v-4.52h-1.96v-1.72
			l2.06-0.16l0.29-4.2h1.93v4.2H310v1.88h-3.55v7.15c0,0.84,0.16,1.47,0.47,1.89c0.31,0.43,0.83,0.64,1.54,0.64
			c0.26,0,0.51-0.03,0.76-0.08c0.24-0.05,0.5-0.14,0.76-0.26l0.44,1.64c-0.35,0.17-0.74,0.31-1.17,0.42
			c-0.44,0.1-0.87,0.16-1.31,0.16C306.6,82.13,305.63,81.74,305.03,80.95z"/>
		<path class="st1" d="M313.46,81.74c-0.58-0.3-1.04-0.73-1.37-1.29c-0.33-0.57-0.5-1.23-0.5-2c0-0.96,0.28-1.76,0.85-2.42
			c0.57-0.65,1.44-1.18,2.62-1.58c1.18-0.4,2.72-0.7,4.6-0.91v-0.26c0-0.52-0.08-1.01-0.25-1.46c-0.17-0.45-0.45-0.82-0.85-1.11
			c-0.4-0.29-0.93-0.43-1.59-0.43c-0.61,0-1.21,0.1-1.8,0.3c-0.59,0.2-1.21,0.49-1.85,0.87c-0.05,0.04-0.1,0.06-0.13,0.08
			c-0.04,0.02-0.08,0.04-0.13,0.08c-0.21-0.35-0.36-0.6-0.46-0.77c-0.1-0.16-0.24-0.41-0.43-0.74c0.47-0.31,0.97-0.6,1.5-0.85
			s1.11-0.46,1.75-0.63c0.63-0.17,1.28-0.25,1.95-0.25c1.57,0,2.72,0.48,3.47,1.44c0.75,0.96,1.12,2.29,1.12,3.99v6.76v0.52v0.78
			h-1.91l-0.18-1.57h-0.08c-0.68,0.57-1.38,1.03-2.1,1.37c-0.72,0.34-1.47,0.51-2.23,0.51C314.71,82.18,314.05,82.03,313.46,81.74z
			 M317.85,79.92c0.53-0.27,1.14-0.7,1.81-1.29v-3.6c-2.09,0.26-3.58,0.65-4.46,1.17c-0.89,0.52-1.33,1.21-1.33,2.06
			c0,0.66,0.2,1.17,0.61,1.53c0.41,0.36,0.96,0.54,1.66,0.54C316.75,80.33,317.32,80.19,317.85,79.92z"/>
		<path class="st1" d="M326.09,81.66v-7.23c0-1.48,0-2.96,0-4.44v-0.52v-0.78h1.88h0.03l0.21,1.51h0.05c0.64-0.56,1.33-1,2.05-1.33
			c0.72-0.33,1.44-0.5,2.15-0.5c1.11,0,2.06,0.27,2.83,0.82c0.77,0.55,1.36,1.33,1.76,2.34c0.4,1.01,0.6,2.19,0.6,3.55
			c0,1.45-0.26,2.7-0.78,3.77c-0.52,1.07-1.22,1.89-2.09,2.47c-0.87,0.57-1.81,0.86-2.82,0.86c-1.13,0-2.34-0.5-3.63-1.51l0.08,2.3
			c0,1.04,0,2.09,0,3.13v0.52v0.78h-2.32v-0.78V86.1C326.09,84.62,326.09,83.14,326.09,81.66z M330.06,79.92
			c0.54,0.22,1.04,0.33,1.49,0.33c1.1,0,1.99-0.47,2.69-1.4c0.7-0.93,1.04-2.18,1.04-3.75c0-1.5-0.28-2.67-0.84-3.51
			c-0.56-0.84-1.42-1.27-2.58-1.27c-0.52,0-1.07,0.14-1.63,0.43c-0.57,0.29-1.17,0.73-1.81,1.32v6.84
			C328.97,79.37,329.52,79.7,330.06,79.92z"/>
		<path class="st1" d="M341.13,76.25V63.9v-0.52V62.6h2.32v0.03v5.22l-0.1,2.69c0.71-0.7,1.41-1.23,2.1-1.61s1.44-0.56,2.26-0.56
			c1.39,0,2.42,0.44,3.07,1.31c0.65,0.87,0.98,2.16,0.98,3.86v2.72c0,1.43,0,2.86,0,4.31v0.52v0.78h-2.32v-0.78v-0.52
			c0-1.44,0-2.88,0-4.31v-2.43c0-1.22-0.19-2.1-0.57-2.64c-0.38-0.54-1-0.81-1.85-0.81c-0.63,0-1.19,0.15-1.7,0.46
			c-0.51,0.3-1.12,0.81-1.85,1.53v3.89c0,1.43,0,2.86,0,4.31v0.52v0.78h-2.32v-0.78v-0.52C341.13,79.12,341.13,77.68,341.13,76.25z"
			/>
		<path class="st1" d="M357.98,81.36c-0.93-0.55-1.68-1.34-2.23-2.39c-0.56-1.04-0.84-2.27-0.84-3.68c0-1.41,0.28-2.64,0.84-3.68
			c0.56-1.04,1.3-1.84,2.23-2.4c0.93-0.56,1.95-0.84,3.04-0.84c1.1,0,2.11,0.28,3.04,0.84c0.93,0.56,1.68,1.36,2.25,2.4
			c0.57,1.04,0.85,2.27,0.85,3.68c0,1.41-0.28,2.64-0.85,3.68c-0.57,1.04-1.31,1.84-2.25,2.39c-0.93,0.55-1.94,0.82-3.04,0.82
			C359.92,82.18,358.91,81.91,357.98,81.36z M362.98,79.66c0.56-0.41,0.99-0.99,1.31-1.75c0.31-0.76,0.47-1.63,0.47-2.62
			c0-0.97-0.16-1.84-0.47-2.6s-0.75-1.34-1.31-1.76c-0.56-0.42-1.21-0.63-1.96-0.63c-1.1,0-1.99,0.46-2.68,1.38
			c-0.69,0.92-1.03,2.12-1.03,3.6c0,0.99,0.16,1.86,0.47,2.61c0.31,0.75,0.75,1.33,1.31,1.75c0.56,0.42,1.2,0.63,1.93,0.63
			C361.77,80.27,362.42,80.07,362.98,79.66z"/>
		<path class="st1" d="M370.58,74.69c0-1.57,0-3.13,0-4.7v-0.52v-0.78h1.88h0.03l0.21,2.4h0.05c0.47-0.85,1.03-1.52,1.67-2
			c0.64-0.48,1.34-0.72,2.09-0.72c0.31,0,0.58,0.02,0.8,0.05c0.22,0.03,0.42,0.1,0.61,0.21c-0.1,0.45-0.19,0.79-0.25,1.01
			c-0.06,0.22-0.14,0.54-0.25,0.98c-0.09-0.03-0.18-0.06-0.29-0.08c-0.1-0.02-0.21-0.03-0.31-0.05c-0.12-0.02-0.33-0.03-0.63-0.03
			c-0.61,0-1.21,0.24-1.79,0.72c-0.58,0.48-1.08,1.24-1.5,2.28v2.35c0,1.58,0,3.17,0,4.75v0.52v0.78h-2.32v-0.78v-0.52
			C370.58,78.59,370.58,76.64,370.58,74.69z"/>
		<path class="st1" d="M379.95,78.34l0.13-1.96h10.31l-0.13,1.96H379.95z"/>
		<path class="st1" d="M392.98,80.56l5.56-16.45h2.66l5.51,16.47l0.18,0.5l0.29,0.78h-2.48l-0.23-0.78l-0.18-0.52l-1.23-4.05h-6.45
			l-1.25,4.05l-0.18,0.52l-0.24,0.78h-2.4l0.26-0.78L392.98,80.56z M400.47,68.08c-0.19-0.7-0.39-1.38-0.6-2.06h-0.1
			c-0.66,2.45-1.52,5.33-2.59,8.62h5.27C401.58,71.83,400.92,69.65,400.47,68.08z"/>
		<path class="st1" d="M409.43,76.12c0-2.05,0-4.1,0-6.14v-0.52v-0.78h1.88h0.03l0.21,1.91h0.05c0.73-0.71,1.45-1.26,2.14-1.64
			c0.7-0.38,1.45-0.57,2.27-0.57c1.39,0,2.41,0.44,3.07,1.31c0.65,0.87,0.98,2.16,0.98,3.86v2.59c0,1.48,0,2.96,0,4.44v0.52v0.78
			h-2.32v-0.78v-0.52c0-1.48,0-2.96,0-4.44v-2.3c0-1.22-0.19-2.1-0.57-2.64c-0.38-0.54-1-0.81-1.85-0.81c-0.63,0-1.19,0.15-1.7,0.46
			c-0.51,0.3-1.12,0.81-1.85,1.53v3.76c0,1.48,0,2.96,0,4.44v0.52v0.78h-2.32v-0.78v-0.52C409.43,79.08,409.43,77.6,409.43,76.12z"
			/>
		<path class="st1" d="M424.26,76.12c0-2.05,0-4.1,0-6.14v-0.52v-0.78h1.88h0.03l0.21,1.91h0.05c0.73-0.71,1.45-1.26,2.14-1.64
			c0.7-0.38,1.45-0.57,2.27-0.57c1.39,0,2.41,0.44,3.07,1.31c0.65,0.87,0.98,2.16,0.98,3.86v2.59c0,1.48,0,2.96,0,4.44v0.52v0.78
			h-2.32v-0.78v-0.52c0-1.48,0-2.96,0-4.44v-2.3c0-1.22-0.19-2.1-0.57-2.64c-0.38-0.54-1-0.81-1.85-0.81c-0.63,0-1.19,0.15-1.7,0.46
			c-0.51,0.3-1.12,0.81-1.85,1.53v3.76c0,1.48,0,2.96,0,4.44v0.52v0.78h-2.32v-0.78v-0.52C424.26,79.08,424.26,77.6,424.26,76.12z"
			/>
		<path class="st1" d="M441.19,81.36c-0.93-0.55-1.68-1.34-2.23-2.39c-0.56-1.04-0.84-2.27-0.84-3.68c0-1.41,0.28-2.64,0.84-3.68
			c0.56-1.04,1.3-1.84,2.23-2.4c0.93-0.56,1.95-0.84,3.04-0.84c1.1,0,2.11,0.28,3.04,0.84c0.93,0.56,1.68,1.36,2.25,2.4
			c0.57,1.04,0.85,2.27,0.85,3.68c0,1.41-0.28,2.64-0.85,3.68c-0.57,1.04-1.31,1.84-2.25,2.39c-0.93,0.55-1.95,0.82-3.04,0.82
			C443.13,82.18,442.12,81.91,441.19,81.36z M446.19,79.66c0.56-0.41,0.99-0.99,1.31-1.75c0.31-0.76,0.47-1.63,0.47-2.62
			c0-0.97-0.16-1.84-0.47-2.6c-0.31-0.76-0.75-1.34-1.31-1.76c-0.56-0.42-1.21-0.63-1.96-0.63c-1.1,0-1.99,0.46-2.68,1.38
			c-0.69,0.92-1.03,2.12-1.03,3.6c0,0.99,0.16,1.86,0.47,2.61c0.31,0.75,0.75,1.33,1.31,1.75c0.56,0.42,1.2,0.63,1.93,0.63
			C444.98,80.27,445.63,80.07,446.19,79.66z"/>
		<path class="st1" d="M454.66,80.95c-0.6-0.78-0.9-1.87-0.9-3.26v-0.78c0-0.42,0-0.73,0-0.93c0-0.2,0-0.5,0-0.9v-4.52h-1.96v-1.72
			l2.06-0.16l0.29-4.2h1.93v4.2h3.55v1.88h-3.55v7.15c0,0.84,0.16,1.47,0.47,1.89c0.31,0.43,0.83,0.64,1.54,0.64
			c0.26,0,0.51-0.03,0.76-0.08c0.24-0.05,0.5-0.14,0.76-0.26l0.44,1.64c-0.35,0.17-0.74,0.31-1.18,0.42s-0.87,0.16-1.31,0.16
			C456.23,82.13,455.26,81.74,454.66,80.95z"/>
		<path class="st1" d="M463.09,81.74c-0.58-0.3-1.04-0.73-1.37-1.29c-0.33-0.57-0.5-1.23-0.5-2c0-0.96,0.28-1.76,0.85-2.42
			c0.57-0.65,1.44-1.18,2.62-1.58c1.18-0.4,2.72-0.7,4.6-0.91v-0.26c0-0.52-0.08-1.01-0.25-1.46c-0.17-0.45-0.45-0.82-0.85-1.11
			c-0.4-0.29-0.93-0.43-1.59-0.43c-0.61,0-1.21,0.1-1.8,0.3c-0.59,0.2-1.21,0.49-1.85,0.87c-0.05,0.04-0.1,0.06-0.13,0.08
			c-0.04,0.02-0.08,0.04-0.13,0.08c-0.21-0.35-0.36-0.6-0.46-0.77c-0.1-0.16-0.24-0.41-0.43-0.74c0.47-0.31,0.97-0.6,1.5-0.85
			c0.53-0.25,1.11-0.46,1.75-0.63c0.63-0.17,1.28-0.25,1.95-0.25c1.57,0,2.72,0.48,3.47,1.44c0.75,0.96,1.12,2.29,1.12,3.99v6.76
			v0.52v0.78h-1.91l-0.18-1.57h-0.08c-0.68,0.57-1.38,1.03-2.1,1.37c-0.72,0.34-1.47,0.51-2.23,0.51
			C464.34,82.18,463.68,82.03,463.09,81.74z M467.48,79.92c0.53-0.27,1.14-0.7,1.81-1.29v-3.6c-2.09,0.26-3.58,0.65-4.46,1.17
			s-1.33,1.21-1.33,2.06c0,0.66,0.2,1.17,0.61,1.53c0.41,0.36,0.96,0.54,1.66,0.54C466.38,80.33,466.95,80.19,467.48,79.92z"/>
		<path class="st1" d="M476.64,80.95c-0.6-0.78-0.9-1.87-0.9-3.26v-0.78c0-0.42,0-0.73,0-0.93c0-0.2,0-0.5,0-0.9v-4.52h-1.96v-1.72
			l2.06-0.16l0.29-4.2h1.93v4.2h3.55v1.88h-3.55v7.15c0,0.84,0.16,1.47,0.47,1.89c0.31,0.43,0.83,0.64,1.54,0.64
			c0.26,0,0.51-0.03,0.76-0.08c0.24-0.05,0.5-0.14,0.76-0.26l0.44,1.64c-0.35,0.17-0.74,0.31-1.18,0.42s-0.87,0.16-1.31,0.16
			C478.21,82.13,477.24,81.74,476.64,80.95z"/>
		<path class="st1" d="M486.34,81.34c-0.96-0.56-1.71-1.35-2.27-2.39c-0.56-1.04-0.84-2.26-0.84-3.67c0-1.36,0.28-2.56,0.84-3.62
			c0.56-1.05,1.29-1.87,2.21-2.44c0.91-0.57,1.88-0.86,2.89-0.86c1.11,0,2.07,0.25,2.86,0.76c0.79,0.51,1.39,1.22,1.8,2.15
			c0.41,0.93,0.61,2.02,0.61,3.28c0,0.24,0,0.48-0.01,0.72c-0.01,0.24-0.04,0.42-0.09,0.56h-9.4v-1.64h6.29c0.26,0,0.46,0,0.59,0
			c0.13,0,0.33,0,0.59,0c0-1.29-0.27-2.28-0.82-2.96c-0.55-0.69-1.34-1.03-2.36-1.03c-0.64,0-1.26,0.18-1.84,0.55
			c-0.58,0.37-1.05,0.93-1.41,1.7c-0.36,0.77-0.54,1.71-0.54,2.82c0.02,1.64,0.44,2.89,1.28,3.77s1.88,1.32,3.13,1.32
			c1.18,0,2.28-0.32,3.29-0.97l0.78,1.44c-0.63,0.42-1.3,0.75-2.01,0.99c-0.71,0.24-1.5,0.37-2.35,0.37
			C488.37,82.18,487.3,81.9,486.34,81.34z"/>
		<path class="st1" d="M499.2,81.31c-0.81-0.58-1.42-1.39-1.84-2.43c-0.42-1.04-0.63-2.23-0.63-3.59c0-1.37,0.26-2.58,0.78-3.63
			c0.52-1.04,1.22-1.85,2.09-2.43c0.87-0.57,1.81-0.86,2.82-0.86c0.73,0,1.37,0.12,1.92,0.37c0.55,0.24,1.13,0.63,1.74,1.15
			l-0.1-2.25V63.9v-0.52V62.6h2.32v0.03v3.89v14.05v0.52v0.78h-1.91l-0.21-1.54h-0.05c-0.56,0.56-1.18,1.01-1.87,1.34
			c-0.69,0.34-1.4,0.51-2.13,0.51C500.99,82.18,500.01,81.89,499.2,81.31z M504.44,70.64c-0.51-0.21-1.04-0.31-1.62-0.31
			c-0.68,0-1.3,0.2-1.87,0.61c-0.57,0.41-1.01,0.99-1.34,1.75c-0.33,0.76-0.5,1.62-0.5,2.6c0,1.45,0.3,2.63,0.89,3.56
			c0.59,0.93,1.48,1.4,2.66,1.4c0.61,0,1.18-0.14,1.71-0.43c0.53-0.29,1.07-0.73,1.61-1.32v-6.84
			C505.45,71.19,504.94,70.85,504.44,70.64z"/>
		<path class="st1" d="M273.74,105.46c-1.18-0.77-2.1-1.84-2.74-3.22c-0.64-1.38-0.97-2.98-0.97-4.79c0-1.88,0.34-3.52,1.03-4.91
			c0.69-1.39,1.63-2.46,2.83-3.21c1.2-0.75,2.55-1.12,4.05-1.12c1.03,0,1.96,0.2,2.81,0.61c0.84,0.41,1.54,0.94,2.1,1.58l-1.25,1.44
			h-0.03c-0.26-0.28-0.52-0.5-0.78-0.68c-0.8-0.59-1.73-0.89-2.79-0.89c-1.1,0-2.06,0.29-2.9,0.87c-0.84,0.58-1.48,1.41-1.95,2.48
			c-0.46,1.07-0.69,2.32-0.69,3.75c0,1.46,0.23,2.73,0.68,3.81c0.45,1.08,1.1,1.91,1.93,2.49c0.84,0.58,1.81,0.87,2.92,0.87
			c1.29,0,2.41-0.4,3.37-1.2c0.21-0.16,0.43-0.37,0.65-0.63h0.03l1.2,1.36c-0.73,0.84-1.54,1.47-2.42,1.89
			c-0.88,0.43-1.88,0.64-2.99,0.64C276.29,106.6,274.92,106.22,273.74,105.46z"/>
		<path class="st1" d="M288.42,105.78c-0.93-0.55-1.68-1.34-2.23-2.39c-0.56-1.04-0.84-2.27-0.84-3.68c0-1.41,0.28-2.64,0.84-3.68
			c0.56-1.04,1.3-1.84,2.23-2.4c0.93-0.56,1.95-0.84,3.04-0.84c1.1,0,2.11,0.28,3.04,0.84c0.93,0.56,1.68,1.36,2.25,2.4
			c0.57,1.04,0.85,2.27,0.85,3.68c0,1.41-0.28,2.64-0.85,3.68c-0.57,1.04-1.31,1.84-2.25,2.39c-0.93,0.55-1.94,0.82-3.04,0.82
			C290.37,106.6,289.36,106.33,288.42,105.78z M293.42,104.08c0.56-0.41,0.99-0.99,1.31-1.75c0.31-0.76,0.47-1.63,0.47-2.62
			c0-0.97-0.16-1.84-0.47-2.6c-0.31-0.76-0.75-1.34-1.31-1.76c-0.56-0.42-1.21-0.63-1.96-0.63c-1.1,0-1.99,0.46-2.68,1.38
			c-0.69,0.92-1.03,2.12-1.03,3.6c0,0.99,0.16,1.86,0.47,2.61c0.31,0.75,0.75,1.33,1.31,1.75c0.56,0.42,1.2,0.63,1.93,0.63
			C292.21,104.7,292.87,104.49,293.42,104.08z"/>
		<path class="st1" d="M301.02,99.11c0-1.57,0-3.13,0-4.7v-0.52v-0.78h1.88h0.03l0.21,2.4h0.05c0.47-0.85,1.03-1.52,1.67-2
			c0.64-0.48,1.34-0.72,2.09-0.72c0.31,0,0.58,0.02,0.8,0.05c0.22,0.03,0.42,0.1,0.61,0.21c-0.1,0.45-0.19,0.79-0.25,1.01
			c-0.06,0.22-0.14,0.54-0.25,0.98c-0.09-0.03-0.18-0.06-0.29-0.08c-0.1-0.02-0.21-0.03-0.31-0.05c-0.12-0.02-0.33-0.03-0.63-0.03
			c-0.61,0-1.21,0.24-1.79,0.72c-0.58,0.48-1.08,1.24-1.5,2.28v2.35c0,1.58,0,3.17,0,4.75v0.52v0.78h-2.32v-0.78v-0.52
			C301.02,103.02,301.02,101.06,301.02,99.11z"/>
		<path class="st1" d="M310.5,106.08v-7.23c0-1.48,0-2.96,0-4.44v-0.52v-0.78h1.88h0.03l0.21,1.51h0.05c0.64-0.56,1.33-1,2.05-1.33
			c0.72-0.33,1.44-0.5,2.15-0.5c1.11,0,2.06,0.27,2.83,0.82c0.77,0.55,1.36,1.33,1.76,2.34c0.4,1.01,0.6,2.19,0.6,3.55
			c0,1.45-0.26,2.7-0.78,3.77c-0.52,1.07-1.22,1.89-2.09,2.47c-0.87,0.57-1.81,0.86-2.82,0.86c-1.13,0-2.34-0.5-3.63-1.51l0.08,2.3
			c0,1.04,0,2.09,0,3.13v0.52v0.78h-2.32v-0.78v-0.52C310.5,109.04,310.5,107.56,310.5,106.08z M314.47,104.35
			c0.54,0.22,1.04,0.33,1.49,0.33c1.1,0,1.99-0.47,2.69-1.4c0.7-0.93,1.04-2.18,1.04-3.75c0-1.5-0.28-2.67-0.84-3.51
			c-0.56-0.84-1.42-1.27-2.58-1.27c-0.52,0-1.07,0.14-1.63,0.43c-0.57,0.29-1.17,0.73-1.81,1.32v6.84
			C313.38,103.79,313.93,104.13,314.47,104.35z"/>
		<path class="st1" d="M326.35,105.3c-0.66-0.87-0.99-2.15-0.99-3.84v-7.05v-0.52v-0.78h2.32v0.03v3.89v4.15
			c0,1.2,0.2,2.08,0.59,2.62c0.39,0.55,1.01,0.82,1.87,0.82c0.64,0,1.22-0.17,1.74-0.51c0.51-0.34,1.08-0.9,1.71-1.68v-8.02v-0.52
			v-0.78h2.32v0.03v3.89v7.96v0.52v0.78H334l-0.18-2.06h-0.1c-0.64,0.78-1.31,1.38-1.98,1.78c-0.68,0.4-1.45,0.6-2.32,0.6
			C328.03,106.6,327.01,106.17,326.35,105.3z"/>
		<path class="st1" d="M341.05,106.11c-0.85-0.33-1.58-0.79-2.19-1.38l1.02-1.36h0.03c0.35,0.28,0.62,0.47,0.81,0.57
			c0.94,0.59,1.98,0.89,3.13,0.89c0.82,0,1.45-0.19,1.89-0.57c0.44-0.38,0.67-0.86,0.67-1.44c0-0.42-0.13-0.77-0.4-1.06
			c-0.27-0.29-0.6-0.53-0.98-0.72c-0.38-0.19-0.91-0.41-1.57-0.65l-0.21-0.08c-1.2-0.45-2.11-0.96-2.73-1.53
			c-0.62-0.57-0.93-1.31-0.93-2.23c0-0.82,0.21-1.51,0.63-2.08c0.42-0.57,0.97-0.99,1.67-1.27c0.7-0.28,1.44-0.42,2.25-0.42
			c0.82,0,1.58,0.13,2.3,0.4c0.71,0.27,1.33,0.63,1.85,1.08l-1.04,1.36h-0.03c-0.28-0.21-0.57-0.39-0.86-0.55
			c-0.7-0.33-1.42-0.5-2.17-0.5c-0.68,0-1.24,0.16-1.7,0.47c-0.45,0.31-0.68,0.77-0.68,1.36c0,0.38,0.11,0.7,0.33,0.95
			c0.22,0.25,0.5,0.47,0.86,0.64c0.36,0.17,0.88,0.39,1.58,0.65l0.21,0.08c0.78,0.3,1.44,0.59,1.96,0.87
			c0.52,0.29,0.97,0.68,1.33,1.19c0.37,0.5,0.55,1.13,0.55,1.88c0,0.73-0.19,1.39-0.57,1.98c-0.38,0.59-0.94,1.06-1.67,1.41
			c-0.73,0.35-1.6,0.52-2.61,0.52C342.8,106.6,341.9,106.44,341.05,106.11z"/>
		<path class="st1" d="M357.29,100.42v-5.43h-1.96v-1.72l1.96-0.16c0-0.45,0-0.79,0-1.02s0-0.56,0-0.99c0-1.37,0.33-2.45,0.98-3.24
			c0.65-0.78,1.63-1.17,2.94-1.17c0.38,0,0.77,0.04,1.16,0.13c0.39,0.09,0.73,0.2,1.03,0.34c-0.1,0.38-0.19,0.67-0.25,0.85
			c-0.06,0.18-0.14,0.46-0.25,0.82c-0.05-0.02-0.1-0.03-0.13-0.04c-0.04-0.01-0.08-0.02-0.13-0.04c-0.21-0.05-0.41-0.09-0.61-0.12
			c-0.2-0.03-0.4-0.04-0.59-0.04c-0.61,0-1.07,0.21-1.38,0.63c-0.31,0.42-0.47,1.05-0.47,1.91v1.98h2.77v1.88h-2.77v5.43
			c0,1.51,0,3.04,0,4.57v0.52v0.78h-2.3v-0.78v-0.52C357.29,103.45,357.29,101.93,357.29,100.42z"/>
		<path class="st1" d="M366.7,105.78c-0.93-0.55-1.68-1.34-2.23-2.39c-0.56-1.04-0.84-2.27-0.84-3.68c0-1.41,0.28-2.64,0.84-3.68
			c0.56-1.04,1.3-1.84,2.23-2.4c0.93-0.56,1.95-0.84,3.04-0.84c1.1,0,2.11,0.28,3.04,0.84c0.93,0.56,1.68,1.36,2.25,2.4
			c0.57,1.04,0.85,2.27,0.85,3.68c0,1.41-0.28,2.64-0.85,3.68c-0.57,1.04-1.31,1.84-2.25,2.39c-0.93,0.55-1.94,0.82-3.04,0.82
			C368.64,106.6,367.63,106.33,366.7,105.78z M371.7,104.08c0.56-0.41,0.99-0.99,1.31-1.75c0.31-0.76,0.47-1.63,0.47-2.62
			c0-0.97-0.16-1.84-0.47-2.6c-0.31-0.76-0.75-1.34-1.31-1.76c-0.56-0.42-1.21-0.63-1.96-0.63c-1.1,0-1.99,0.46-2.68,1.38
			c-0.69,0.92-1.03,2.12-1.03,3.6c0,0.99,0.16,1.86,0.47,2.61c0.31,0.75,0.75,1.33,1.31,1.75c0.56,0.42,1.2,0.63,1.93,0.63
			C370.49,104.7,371.14,104.49,371.7,104.08z"/>
		<path class="st1" d="M379.3,99.11c0-1.57,0-3.13,0-4.7v-0.52v-0.78h1.88h0.03l0.21,2.4h0.05c0.47-0.85,1.03-1.52,1.67-2
			c0.64-0.48,1.34-0.72,2.09-0.72c0.31,0,0.58,0.02,0.8,0.05c0.22,0.03,0.42,0.1,0.61,0.21c-0.1,0.45-0.19,0.79-0.25,1.01
			c-0.06,0.22-0.14,0.54-0.25,0.98c-0.09-0.03-0.18-0.06-0.29-0.08c-0.1-0.02-0.21-0.03-0.31-0.05c-0.12-0.02-0.33-0.03-0.63-0.03
			c-0.61,0-1.21,0.24-1.79,0.72c-0.58,0.48-1.08,1.24-1.5,2.28v2.35c0,1.58,0,3.17,0,4.75v0.52v0.78h-2.32v-0.78v-0.52
			C379.3,103.02,379.3,101.06,379.3,99.11z"/>
		<path class="st1" d="M394.21,97.41c0-2.52,0-5.05,0-7.57v-0.52v-0.78h5.14c2.11,0,3.74,0.41,4.91,1.23
			c1.17,0.82,1.75,2.16,1.75,4.02c0,1.22-0.27,2.24-0.82,3.05c-0.55,0.82-1.31,1.43-2.3,1.84c-0.98,0.41-2.13,0.61-3.43,0.61h-2.9
			c0,1.9,0,3.79,0,5.69v0.52v0.78h-2.35v-0.78v-0.52C394.21,102.46,394.21,99.94,394.21,97.41z M402.57,96.51
			c0.74-0.58,1.11-1.49,1.11-2.73c0-1.24-0.37-2.1-1.11-2.6c-0.74-0.5-1.91-0.74-3.51-0.74h-2.51c0,2.31,0,4.63,0,6.95h2.61
			C400.7,97.39,401.83,97.1,402.57,96.51z"/>
		<path class="st1" d="M410.89,105.77c-0.96-0.56-1.71-1.35-2.27-2.39c-0.56-1.04-0.84-2.26-0.84-3.67c0-1.36,0.28-2.56,0.84-3.62
			c0.56-1.05,1.29-1.87,2.21-2.44c0.91-0.57,1.88-0.86,2.89-0.86c1.11,0,2.07,0.25,2.86,0.76c0.79,0.51,1.39,1.22,1.8,2.15
			c0.41,0.93,0.61,2.02,0.61,3.28c0,0.24,0,0.48-0.01,0.72c-0.01,0.24-0.04,0.42-0.09,0.56h-9.4v-1.64h6.29c0.26,0,0.46,0,0.59,0
			c0.13,0,0.33,0,0.59,0c0-1.29-0.27-2.28-0.82-2.96c-0.55-0.69-1.34-1.03-2.36-1.03c-0.64,0-1.26,0.18-1.84,0.55
			c-0.58,0.37-1.05,0.93-1.41,1.7c-0.36,0.77-0.54,1.71-0.54,2.82c0.02,1.64,0.44,2.89,1.28,3.77c0.84,0.88,1.88,1.32,3.13,1.32
			c1.18,0,2.28-0.32,3.29-0.97l0.78,1.44c-0.63,0.42-1.3,0.75-2.01,0.99c-0.71,0.24-1.5,0.37-2.35,0.37
			C412.92,106.6,411.85,106.33,410.89,105.77z"/>
		<path class="st1" d="M422.19,99.11c0-1.57,0-3.13,0-4.7v-0.52v-0.78h1.88h0.03l0.21,2.4h0.05c0.47-0.85,1.03-1.52,1.67-2
			c0.64-0.48,1.34-0.72,2.09-0.72c0.31,0,0.58,0.02,0.8,0.05c0.22,0.03,0.42,0.1,0.61,0.21c-0.11,0.45-0.19,0.79-0.25,1.01
			c-0.06,0.22-0.14,0.54-0.25,0.98c-0.09-0.03-0.18-0.06-0.29-0.08c-0.1-0.02-0.21-0.03-0.31-0.05c-0.12-0.02-0.33-0.03-0.63-0.03
			c-0.61,0-1.21,0.24-1.79,0.72c-0.58,0.48-1.08,1.24-1.5,2.28v2.35c0,1.58,0,3.17,0,4.75v0.52v0.78h-2.32v-0.78v-0.52
			C422.19,103.02,422.19,101.06,422.19,99.11z"/>
		<path class="st1" d="M432.43,106.11c-0.85-0.33-1.58-0.79-2.19-1.38l1.02-1.36h0.03c0.35,0.28,0.62,0.47,0.81,0.57
			c0.94,0.59,1.98,0.89,3.13,0.89c0.82,0,1.45-0.19,1.89-0.57c0.44-0.38,0.67-0.86,0.67-1.44c0-0.42-0.14-0.77-0.4-1.06
			c-0.27-0.29-0.6-0.53-0.98-0.72c-0.38-0.19-0.9-0.41-1.57-0.65l-0.21-0.08c-1.2-0.45-2.11-0.96-2.73-1.53
			c-0.62-0.57-0.93-1.31-0.93-2.23c0-0.82,0.21-1.51,0.63-2.08c0.42-0.57,0.97-0.99,1.67-1.27c0.7-0.28,1.44-0.42,2.25-0.42
			c0.82,0,1.58,0.13,2.3,0.4c0.71,0.27,1.33,0.63,1.85,1.08l-1.04,1.36h-0.03c-0.28-0.21-0.57-0.39-0.86-0.55
			c-0.7-0.33-1.42-0.5-2.17-0.5c-0.68,0-1.24,0.16-1.7,0.47c-0.45,0.31-0.68,0.77-0.68,1.36c0,0.38,0.11,0.7,0.33,0.95
			c0.22,0.25,0.51,0.47,0.86,0.64c0.36,0.17,0.88,0.39,1.58,0.65l0.21,0.08c0.78,0.3,1.44,0.59,1.96,0.87
			c0.52,0.29,0.97,0.68,1.33,1.19c0.37,0.5,0.55,1.13,0.55,1.88c0,0.73-0.19,1.39-0.57,1.98c-0.38,0.59-0.94,1.06-1.67,1.41
			c-0.73,0.35-1.6,0.52-2.61,0.52C434.19,106.6,433.28,106.44,432.43,106.11z"/>
		<path class="st1" d="M443.11,90.03c-0.28-0.28-0.42-0.64-0.42-1.07c0-0.44,0.14-0.79,0.42-1.06c0.28-0.27,0.64-0.4,1.1-0.4
			s0.82,0.13,1.1,0.4c0.28,0.27,0.42,0.62,0.42,1.06c0,0.45-0.14,0.81-0.42,1.08c-0.28,0.27-0.64,0.4-1.1,0.4
			S443.38,90.3,443.11,90.03z M443.05,98.64c0-1.41,0-2.82,0-4.23v-0.52v-0.78h2.32v0.03v3.11c0,2.91,0,5.82,0,8.75v0.52v0.78h-2.32
			v-0.78v-0.52C443.05,102.86,443.05,100.75,443.05,98.64z"/>
		<path class="st1" d="M450.82,106.16c-0.58-0.3-1.04-0.73-1.37-1.29c-0.33-0.57-0.5-1.23-0.5-2c0-0.96,0.28-1.76,0.85-2.42
			c0.57-0.65,1.44-1.18,2.62-1.58c1.18-0.4,2.72-0.7,4.6-0.91V97.7c0-0.52-0.08-1.01-0.25-1.46c-0.17-0.45-0.45-0.82-0.85-1.11
			c-0.4-0.29-0.93-0.43-1.59-0.43c-0.61,0-1.21,0.1-1.8,0.3c-0.59,0.2-1.21,0.49-1.85,0.87c-0.05,0.04-0.1,0.06-0.13,0.08
			c-0.04,0.02-0.08,0.04-0.13,0.08c-0.21-0.35-0.36-0.6-0.46-0.77c-0.1-0.16-0.24-0.41-0.43-0.74c0.47-0.31,0.97-0.6,1.5-0.85
			c0.53-0.25,1.11-0.46,1.75-0.63c0.63-0.17,1.28-0.25,1.95-0.25c1.57,0,2.72,0.48,3.47,1.44c0.75,0.96,1.12,2.29,1.12,3.99v6.76
			v0.52v0.78h-1.91l-0.18-1.57h-0.08c-0.68,0.57-1.38,1.03-2.1,1.37c-0.72,0.34-1.47,0.51-2.23,0.51
			C452.07,106.6,451.4,106.46,450.82,106.16z M455.21,104.35c0.53-0.27,1.14-0.7,1.81-1.29v-3.6c-2.09,0.26-3.58,0.65-4.46,1.17
			s-1.33,1.21-1.33,2.06c0,0.66,0.2,1.17,0.61,1.53c0.41,0.36,0.96,0.54,1.66,0.54C454.11,104.75,454.68,104.62,455.21,104.35z"/>
		<path class="st1" d="M463.44,100.55c0-2.05,0-4.1,0-6.14v-0.52v-0.78h1.88h0.03l0.21,1.91h0.05c0.73-0.71,1.45-1.26,2.14-1.64
			c0.7-0.38,1.45-0.57,2.27-0.57c1.39,0,2.41,0.44,3.07,1.31c0.65,0.87,0.98,2.16,0.98,3.86v2.59c0,1.48,0,2.96,0,4.44v0.52v0.78
			h-2.32v-0.78v-0.52c0-1.48,0-2.96,0-4.44v-2.3c0-1.22-0.19-2.1-0.57-2.64c-0.38-0.54-1-0.81-1.85-0.81c-0.63,0-1.19,0.15-1.7,0.46
			c-0.51,0.3-1.12,0.81-1.85,1.53v3.76c0,1.48,0,2.96,0,4.44v0.52v0.78h-2.32v-0.78v-0.52
			C463.44,103.51,463.44,102.03,463.44,100.55z"/>
	</g>
</g>
</svg>
