<?xml version="1.0" encoding="utf-8"?>
<!-- Generator: Adobe Illustrator 28.1.0, SVG Export Plug-In . SVG Version: 6.00 Build 0)  -->
<svg version="1.1" id="Layer_1" xmlns="http://www.w3.org/2000/svg" xmlns:xlink="http://www.w3.org/1999/xlink" x="0px" y="0px"
	 viewBox="0 0 543 150" style="enable-background:new 0 0 543 150;" xml:space="preserve">
<style type="text/css">
	.st0{fill:#FFFFFF;}
	.st1{fill:#91B50D;}
	.st2{fill:#FDFEF9;}
</style>
<g>
	<rect x="234" class="st0" width="309" height="150"/>
</g>
<rect class="st1" width="234" height="150"/>
<g>
	<path class="st2" d="M36.6,65.6V32.1h13.9c7.7,0,13.6,3.55,13.6,12c0,8.25-5.8,11.8-13.6,11.8h-6.75v9.7H36.6z M43.75,38.45v11.1
		h6.5c3.7,0,6.35-1.5,6.35-5.45c0-4.2-2.65-5.65-6.35-5.65H43.75z"/>
	<path class="st2" d="M65.7,53.35c0-7.55,4.75-12.75,11.95-12.75c7.8,0,11.7,5.2,11.7,11.6c0,1.05-0.1,2.45-0.25,3H72.4
		c0.45,3.45,2.75,5.1,5.95,5.1c3.45,0,5.3-1.5,6.2-3.6l4.35,4.35c-1.85,2.65-5.15,5.05-10.65,5.05C70.45,66.1,65.7,60.9,65.7,53.35z
		 M72.4,51.1h10.5c-0.25-3.25-2-5-5.2-5C74.65,46.1,72.75,47.8,72.4,51.1z"/>
	<path class="st2" d="M92.95,65.6V41.1h7.15v7.7c0.8-4.1,3.2-8.2,7.9-8.2c3.6,0,5.6,2.3,5.6,6.15c0,2.65-0.8,4.75-1.4,5.7h-6.9
		c0.9-0.9,1.75-2.65,1.75-4.05c0-1.4-0.65-2.45-2.2-2.45c-2.45,0-4.75,2.65-4.75,6.7V65.6H92.95z"/>
	<path class="st2" d="M116.25,65.6V32.1h9.45l5.45,12.45l3.15,9.95l3.15-9.95l5.45-12.45h9.45v33.5h-7.15V53.05l1-13.5l-4,11.15
		l-4.15,9.1h-7.5l-4.15-9.1l-4.05-11.15l1.05,13.5V65.6H116.25z"/>
	<path class="st2" d="M155.85,53.35c0-7.55,4.75-12.75,11.95-12.75c7.8,0,11.7,5.2,11.7,11.6c0,1.05-0.1,2.45-0.25,3h-16.7
		c0.45,3.45,2.75,5.1,5.95,5.1c3.45,0,5.3-1.5,6.2-3.6l4.35,4.35c-1.85,2.65-5.15,5.05-10.65,5.05
		C160.6,66.1,155.85,60.9,155.85,53.35z M162.55,51.1h10.5c-0.25-3.25-2-5-5.2-5C164.8,46.1,162.9,47.8,162.55,51.1z"/>
	<path class="st2" d="M184.35,58.35v-11.8h-3.65V41.1h3.65v-2.9l7.15-3.75v6.65h6.8v5.45h-6.8v10.5c0,2,1,2.7,2.4,2.7
		c1.55,0,2.9-1.25,3.65-2.6L199.6,63c-1.05,1.35-3.55,3.1-7.3,3.1C186.9,66.1,184.35,62.9,184.35,58.35z"/>
	<path class="st2" d="M36.4,91.8c0-9.95,5.55-17.2,15-17.2c7.9,0,12.45,4.65,14.2,11L63.55,87c-1.4-5.85-4.95-10.15-12.15-10.15
		c-8.05,0-12.5,6.2-12.5,14.95s4.45,14.95,12.5,14.95c7.2,0,10.75-4.3,12.15-10.15L65.6,98c-1.75,6.35-6.3,11-14.2,11
		C41.95,109,36.4,101.75,36.4,91.8z"/>
	<path class="st2" d="M69.2,96.65c0-7.55,4.55-12.45,11.1-12.45s11.1,4.9,11.1,12.45c0,7.55-4.55,12.45-11.1,12.45
		S69.2,104.2,69.2,96.65z M88.95,96.65c0-6.6-3.5-10.4-8.65-10.4s-8.65,3.8-8.65,10.4c0,6.55,3.5,10.4,8.65,10.4
		S88.95,103.2,88.95,96.65z"/>
	<path class="st2" d="M96.9,108.6V84.7h2.4v6.9c0.75-3.95,3.6-7.4,7.75-7.4c2.95,0,5.1,1.8,5.1,4.95c0,1.65-0.35,3.15-0.85,4.1
		h-2.65c0.6-0.8,1.15-2.35,1.15-3.85c0-1.7-1.05-3.35-3.55-3.35c-4,0-6.95,4.35-6.95,8.55v14H96.9z"/>
	<path class="st2" d="M116.55,117.9V84.7h2.4v6.6c0.7-3.85,3.55-7.15,8.15-7.15c6.4,0,10.1,4.95,10.1,12.5
		c0,7.5-3.7,12.45-10.1,12.45c-4.6,0-7.45-3.25-8.15-7.15v15.95H116.55z M126.5,107.05c4.8,0,8.25-3.25,8.25-10.4
		c0-7.2-3.45-10.4-8.25-10.4c-5,0-7.55,3.7-7.55,7.7v5.35C118.95,103.3,121.5,107.05,126.5,107.05z"/>
	<path class="st2" d="M142.35,100.45V84.7h2.4V100c0,4.45,2.25,7.05,6.4,7.05c5.6,0,7.8-4.05,7.8-8.35v-14h2.4v23.9h-2.4v-7.2
		c-0.65,4.2-3.45,7.7-8.65,7.7C145.7,109.1,142.35,106.3,142.35,100.45z"/>
	<path class="st2" d="M165.9,102.1l1.85-1.4c0.7,3.65,3.95,6.35,8.85,6.35c3.55,0,5.75-1.5,5.75-4.35c0-2.65-2.1-3.75-5.65-4.6
		l-3.3-0.8c-3.45-0.8-6.9-2.35-6.9-6.55c0-3.95,3.2-6.55,7.95-6.55c5.1,0,8.25,2.5,9.4,6.1L182,91.65c-1.1-3.6-3.7-5.4-7.65-5.4
		c-3.2,0-5.5,1.6-5.5,4.4c0,2.85,2,3.8,5.6,4.7l3.3,0.8c4.6,1.15,6.85,3.1,6.85,6.5c0,4.5-3.8,6.45-8.1,6.45
		C171.75,109.1,167.2,106.9,165.9,102.1z"/>
</g>
<g>
	<g>
		<path class="st1" d="M249,53.64l8.37-20.77h2.7l8.37,20.77h-2.98l-2.26-5.8h-9.08l-2.26,5.8H249z M255.04,45.46h7.22l-2.57-6.57
			l-1.02-3.26l-1.05,3.26L255.04,45.46z"/>
		<path class="st1" d="M277.77,53.64V32.87h2.7v18.39h10.88v2.39H277.77z"/>
		<path class="st1" d="M292.71,50.51c0-2.02,1.52-3.29,3.66-4.25l5.43-2.42c-0.09-1.77-0.93-3.07-3.29-3.07
			c-2.14,0-3.57,1.24-4.34,2.88l-1.83-1.89c0.9-1.55,3.13-3.44,6.48-3.44c3.69,0,5.67,2.2,5.67,5.77v6.17
			c0,0.71,0.28,0.93,0.84,0.93h0.96v2.45h-1.74c-1.55,0-2.67-0.74-2.67-2.85v-1.05c-0.5,1.98-2.11,4.22-5.21,4.22
			C294.14,53.95,292.71,52.5,292.71,50.51z M297.55,51.72c2.54,0,4.34-1.67,4.34-3.84V45.8l-4.37,2.05
			c-1.43,0.68-2.08,1.3-2.08,2.23C295.44,51.1,296.15,51.72,297.55,51.72z"/>
		<path class="st1" d="M309.42,53.64V38.64h2.7v4c0.59-2.33,2.14-4.34,4.68-4.34c1.61,0,3.16,1.15,3.16,3.26
			c0,1.27-0.34,2.2-0.59,2.57h-2.95c0.5-0.43,0.9-1.36,0.9-2.2c0-0.87-0.47-1.61-1.55-1.61c-1.92,0-3.66,2.26-3.66,4.84v8.5H309.42z
			"/>
		<path class="st1" d="M324.7,48.43c-0.37,0.5-0.81,1.21-0.81,1.86c0,0.81,0.43,1.21,1.98,1.21h4.53c2.73,0,4.43,1.08,4.43,3.35
			c0,2.85-2.79,4.87-7.84,4.87c-3.84,0-6.26-1.27-6.26-3.26c0-1.4,1.27-2.23,2.42-2.7c-0.96-0.31-1.46-1.02-1.46-2.02
			c0-1.18,0.9-2.48,2.36-3.66c-1.49-0.93-2.36-2.51-2.36-4.4c0-3.13,2.39-5.36,5.92-5.36c0.99,0,1.89,0.19,2.67,0.5l0.93-3.6
			l2.79,0.99l-2.76,3.1c1.43,0.93,2.29,2.51,2.29,4.37c0,3.13-2.39,5.36-5.92,5.36C326.53,49.05,325.54,48.84,324.7,48.43z
			 M332.33,55.22c0-0.96-0.74-1.4-2.26-1.4h-6.14c-0.5,0.43-1.02,1.08-1.02,1.8c0,1.21,1.4,1.95,4.09,1.95
			C330.41,57.58,332.33,56.71,332.33,55.22z M330.93,43.69c0-2.05-1.43-3.29-3.32-3.29c-1.86,0-3.32,1.24-3.32,3.29
			c0,2.05,1.46,3.29,3.32,3.29C329.51,46.98,330.93,45.74,330.93,43.69z"/>
		<path class="st1" d="M336.36,46.14c0-4.74,2.91-7.81,7.04-7.81c4.25,0,6.82,2.82,6.82,7.22c0,0.46-0.06,0.93-0.12,1.21h-11.13
			c0.16,3.16,1.92,4.96,4.59,4.96c3.01,0,4.22-1.64,4.81-2.95l1.64,1.86c-1.12,1.8-3.19,3.32-6.45,3.32
			C339.3,53.95,336.36,50.91,336.36,46.14z M339.02,44.81h8.77c-0.28-2.76-1.89-4.22-4.4-4.22
			C340.98,40.59,339.36,42.02,339.02,44.81z"/>
		<path class="st1" d="M353.03,45.74v-1.89h7.32v1.89H353.03z"/>
		<path class="st1" d="M363.17,48.62l2.05-1.8c0.96,3.38,4.19,4.59,6.79,4.59c2.33,0,4.28-0.9,4.28-3.16c0-2.39-1.83-2.98-4.59-3.63
			l-1.95-0.43c-2.76-0.62-5.89-1.86-5.89-5.77c0-3.78,3.29-5.83,6.91-5.83c3.75,0,6.73,1.64,8,4.74l-2.26,1.8
			c-0.99-2.82-3.1-3.97-5.8-3.97c-2.29,0-4,1.15-4,3.07c0,2.08,1.52,2.85,3.91,3.44l2.26,0.56c2.95,0.71,6.17,1.86,6.17,5.95
			c0,3.6-3.01,5.77-7.04,5.77C368.1,53.95,364.54,52.46,363.17,48.62z"/>
		<path class="st1" d="M381.8,46.14c0-4.74,2.76-7.81,7.07-7.81c3.91,0,6.2,2.26,6.91,5.27l-2.64,1.09
			c-0.31-2.39-1.55-4.09-4.25-4.09c-2.73,0-4.37,2.02-4.37,5.55s1.64,5.58,4.37,5.58c2.7,0,3.94-1.74,4.25-4.12l2.64,1.09
			c-0.71,3.01-3.01,5.27-6.91,5.27C384.56,53.95,381.8,50.91,381.8,46.14z"/>
		<path class="st1" d="M398.23,50.51c0-2.02,1.52-3.29,3.66-4.25l5.43-2.42c-0.09-1.77-0.93-3.07-3.29-3.07
			c-2.14,0-3.57,1.24-4.34,2.88l-1.83-1.89c0.9-1.55,3.13-3.44,6.48-3.44c3.69,0,5.67,2.2,5.67,5.77v6.17
			c0,0.71,0.28,0.93,0.84,0.93h0.96v2.45h-1.74c-1.55,0-2.67-0.74-2.67-2.85v-1.05c-0.5,1.98-2.11,4.22-5.21,4.22
			C399.66,53.95,398.23,52.5,398.23,50.51z M403.07,51.72c2.54,0,4.34-1.67,4.34-3.84V45.8l-4.37,2.05
			c-1.43,0.68-2.08,1.3-2.08,2.23C400.96,51.1,401.67,51.72,403.07,51.72z"/>
		<path class="st1" d="M414.94,53.64V32.87h2.7v20.77H414.94z"/>
		<path class="st1" d="M420.89,46.14c0-4.74,2.91-7.81,7.04-7.81c4.25,0,6.82,2.82,6.82,7.22c0,0.46-0.06,0.93-0.12,1.21H423.5
			c0.16,3.16,1.92,4.96,4.59,4.96c3.01,0,4.22-1.64,4.81-2.95l1.64,1.86c-1.12,1.8-3.19,3.32-6.45,3.32
			C423.84,53.95,420.89,50.91,420.89,46.14z M423.56,44.81h8.78c-0.28-2.76-1.89-4.22-4.4-4.22
			C425.51,40.59,423.9,42.02,423.56,44.81z"/>
		<path class="st1" d="M251.2,82.64V61.87h3.01l5.36,10.29l2.11,4.56l2.08-4.56l5.4-10.29h3.01v20.77h-2.7V71.17l0.28-5.61
			l-2.29,5.15l-4.46,8.46h-2.64l-4.46-8.46l-2.33-5.15l0.34,5.61v11.47H251.2z"/>
		<path class="st1" d="M275.66,75.14c0-4.74,2.91-7.81,7.04-7.81c4.25,0,6.82,2.82,6.82,7.22c0,0.46-0.06,0.93-0.12,1.21h-11.13
			c0.15,3.16,1.92,4.96,4.59,4.96c3.01,0,4.22-1.64,4.81-2.95l1.64,1.86c-1.12,1.8-3.19,3.32-6.45,3.32
			C278.6,82.95,275.66,79.91,275.66,75.14z M278.33,73.81h8.77c-0.28-2.76-1.89-4.22-4.4-4.22
			C280.28,69.59,278.67,71.02,278.33,73.81z"/>
		<path class="st1" d="M293.52,78.8v-9.05h-2.42v-2.11h2.42v-1.92l2.7-1.98v3.91h4.93v2.11h-4.93v8.25c0,1.92,0.9,2.39,2.08,2.39
			c1.33,0,2.26-1.12,2.67-2.05l0.9,2.67c-0.65,1.02-2.08,1.98-4.15,1.98C295.25,82.98,293.52,81.37,293.52,78.8z"/>
		<path class="st1" d="M303.19,79.51c0-2.02,1.52-3.29,3.66-4.25l5.43-2.42c-0.09-1.77-0.93-3.07-3.29-3.07
			c-2.14,0-3.57,1.24-4.34,2.88l-1.83-1.89c0.9-1.55,3.13-3.44,6.48-3.44c3.69,0,5.67,2.2,5.67,5.77v6.17
			c0,0.71,0.28,0.93,0.84,0.93h0.96v2.45h-1.74c-1.55,0-2.67-0.74-2.67-2.85v-1.05c-0.5,1.98-2.11,4.22-5.21,4.22
			C304.61,82.95,303.19,81.5,303.19,79.51z M308.02,80.72c2.54,0,4.34-1.67,4.34-3.84V74.8l-4.37,2.05
			c-1.43,0.68-2.08,1.3-2.08,2.23C305.92,80.1,306.63,80.72,308.02,80.72z"/>
		<path class="st1" d="M319.9,88.41V67.64h2.7v3.84c0.53-2.26,1.95-4.19,4.84-4.19c3.78,0,6.14,3.07,6.14,7.81
			c0,4.74-2.36,7.84-6.14,7.84c-2.88,0-4.31-1.92-4.84-4.19v9.64H319.9z M326.5,80.69c2.39,0,4.34-1.74,4.34-5.58
			c0-3.81-1.95-5.55-4.34-5.55c-2.85,0-3.91,2.02-3.91,4.5v2.14C322.59,78.67,323.65,80.69,326.5,80.69z"/>
		<path class="st1" d="M336.82,82.64V61.87h2.7v9.77c0.59-2.33,2.2-4.31,5.15-4.31c2.95,0,4.78,1.77,4.78,4.96v10.36h-2.67v-9.7
			c0-1.95-0.77-3.32-3.32-3.32c-2.88,0-3.94,2.02-3.94,4.53v8.5H336.82z"/>
		<path class="st1" d="M352.32,75.14c0-4.74,2.91-7.81,7.07-7.81s7.1,3.07,7.1,7.81s-2.95,7.81-7.1,7.81S352.32,79.88,352.32,75.14z
			 M363.76,75.14c0-3.81-1.8-5.55-4.37-5.55c-2.54,0-4.31,1.74-4.31,5.55c0,3.78,1.77,5.55,4.31,5.55
			C361.96,80.69,363.76,78.92,363.76,75.14z"/>
		<path class="st1" d="M369.87,82.64V67.64h2.7v4c0.59-2.33,2.14-4.34,4.68-4.34c1.61,0,3.16,1.15,3.16,3.26
			c0,1.27-0.34,2.2-0.59,2.57h-2.95c0.5-0.43,0.9-1.36,0.9-2.2c0-0.87-0.47-1.61-1.55-1.61c-1.92,0-3.66,2.26-3.66,4.84v8.5H369.87z
			"/>
		<path class="st1" d="M382.3,74.74v-1.89h7.32v1.89H382.3z"/>
		<path class="st1" d="M390.2,82.64l8.37-20.77h2.7l8.37,20.77h-2.98l-2.26-5.8h-9.08l-2.26,5.8H390.2z M396.25,74.46h7.22
			l-2.57-6.57l-1.02-3.26l-1.05,3.26L396.25,74.46z"/>
		<path class="st1" d="M411.41,82.64V67.64h2.7v4c0.59-2.33,2.2-4.31,5.15-4.31s4.78,1.77,4.78,4.96v10.36h-2.67v-9.7
			c0-1.95-0.78-3.32-3.32-3.32c-2.88,0-3.94,2.02-3.94,4.53v8.5H411.41z"/>
		<path class="st1" d="M428.02,82.64V67.64h2.7v4c0.59-2.33,2.2-4.31,5.15-4.31c2.95,0,4.77,1.77,4.77,4.96v10.36h-2.67v-9.7
			c0-1.95-0.78-3.32-3.32-3.32c-2.88,0-3.94,2.02-3.94,4.53v8.5H428.02z"/>
		<path class="st1" d="M443.52,75.14c0-4.74,2.92-7.81,7.07-7.81s7.1,3.07,7.1,7.81s-2.95,7.81-7.1,7.81S443.52,79.88,443.52,75.14z
			 M454.97,75.14c0-3.81-1.8-5.55-4.37-5.55c-2.54,0-4.31,1.74-4.31,5.55c0,3.78,1.77,5.55,4.31,5.55
			C453.17,80.69,454.97,78.92,454.97,75.14z"/>
		<path class="st1" d="M461.66,78.8v-9.05h-2.42v-2.11h2.42v-1.92l2.7-1.98v3.91h4.93v2.11h-4.93v8.25c0,1.92,0.9,2.39,2.08,2.39
			c1.33,0,2.26-1.12,2.67-2.05L470,81c-0.65,1.02-2.08,1.98-4.15,1.98C463.4,82.98,461.66,81.37,461.66,78.8z"/>
		<path class="st1" d="M471.33,79.51c0-2.02,1.52-3.29,3.66-4.25l5.43-2.42c-0.09-1.77-0.93-3.07-3.29-3.07
			c-2.14,0-3.57,1.24-4.34,2.88l-1.83-1.89c0.9-1.55,3.13-3.44,6.48-3.44c3.69,0,5.67,2.2,5.67,5.77v6.17
			c0,0.71,0.28,0.93,0.84,0.93h0.96v2.45h-1.74c-1.55,0-2.67-0.74-2.67-2.85v-1.05c-0.5,1.98-2.11,4.22-5.21,4.22
			C472.76,82.95,471.33,81.5,471.33,79.51z M476.17,80.72c2.54,0,4.34-1.67,4.34-3.84V74.8l-4.37,2.05
			c-1.43,0.68-2.08,1.3-2.08,2.23C474.06,80.1,474.77,80.72,476.17,80.72z"/>
		<path class="st1" d="M488.44,78.8v-9.05h-2.42v-2.11h2.42v-1.92l2.7-1.98v3.91h4.93v2.11h-4.93v8.25c0,1.92,0.9,2.39,2.08,2.39
			c1.33,0,2.26-1.12,2.67-2.05l0.9,2.67c-0.65,1.02-2.08,1.98-4.16,1.98C490.18,82.98,488.44,81.37,488.44,78.8z"/>
		<path class="st1" d="M497.59,75.14c0-4.74,2.92-7.81,7.04-7.81c4.25,0,6.82,2.82,6.82,7.22c0,0.46-0.06,0.93-0.12,1.21h-11.13
			c0.16,3.16,1.92,4.96,4.59,4.96c3.01,0,4.22-1.64,4.81-2.95l1.64,1.86c-1.12,1.8-3.19,3.32-6.45,3.32
			C500.53,82.95,497.59,79.91,497.59,75.14z M500.26,73.81h8.77c-0.28-2.76-1.89-4.22-4.4-4.22
			C502.21,69.59,500.6,71.02,500.26,73.81z"/>
		<path class="st1" d="M514.33,75.17c0-4.74,2.36-7.84,6.14-7.84c2.88,0,4.31,1.92,4.84,4.22v-9.67h2.7v20.77h-2.7V78.8
			c-0.53,2.29-1.95,4.22-4.84,4.22C516.68,83.02,514.33,79.91,514.33,75.17z M521.37,80.75c2.88,0,3.94-2.02,3.94-4.5v-2.14
			c0-2.48-1.05-4.5-3.94-4.5c-2.36,0-4.31,1.74-4.31,5.55C517.06,79.02,519.01,80.75,521.37,80.75z"/>
		<path class="st1" d="M250.39,101.23c0-5.98,3.44-10.67,9.74-10.67c4.65,0,7.78,2.48,9.12,6.76l-2.42,1.58
			c-0.68-3.47-2.73-5.8-6.67-5.8c-4.74,0-6.91,3.38-6.91,8.12s2.17,8.12,6.91,8.12c3.94,0,5.98-2.33,6.67-5.8l2.42,1.58
			c-1.33,4.28-4.46,6.76-9.12,6.76C253.84,111.89,250.39,107.21,250.39,101.23z"/>
		<path class="st1" d="M271.41,104.14c0-4.74,2.91-7.81,7.07-7.81s7.1,3.07,7.1,7.81s-2.95,7.81-7.1,7.81
			S271.41,108.88,271.41,104.14z M282.85,104.14c0-3.81-1.8-5.55-4.37-5.55c-2.54,0-4.31,1.74-4.31,5.55c0,3.78,1.77,5.55,4.31,5.55
			C281.06,109.69,282.85,107.92,282.85,104.14z"/>
		<path class="st1" d="M288.96,111.64V96.64h2.7v4c0.59-2.33,2.14-4.34,4.68-4.34c1.61,0,3.16,1.15,3.16,3.26
			c0,1.27-0.34,2.2-0.59,2.57h-2.95c0.5-0.43,0.9-1.36,0.9-2.2c0-0.87-0.47-1.61-1.55-1.61c-1.92,0-3.66,2.26-3.66,4.84v8.5H288.96z
			"/>
		<path class="st1" d="M302.04,117.41V96.64h2.7v3.84c0.53-2.26,1.95-4.19,4.84-4.19c3.78,0,6.14,3.07,6.14,7.81
			c0,4.74-2.36,7.84-6.14,7.84c-2.88,0-4.31-1.92-4.84-4.19v9.64H302.04z M308.64,109.69c2.39,0,4.34-1.74,4.34-5.58
			c0-3.81-1.95-5.55-4.34-5.55c-2.85,0-3.91,2.02-3.91,4.5v2.14C304.74,107.67,305.79,109.69,308.64,109.69z"/>
		<path class="st1" d="M318.81,107.02V96.64h2.67v9.74c0,1.92,0.77,3.32,3.32,3.32c2.91,0,3.97-2.05,3.97-4.53v-8.53h2.67v15.01
			h-2.67v-4.09c-0.56,2.36-2.17,4.4-5.18,4.4C320.64,111.95,318.81,110.19,318.81,107.02z"/>
		<path class="st1" d="M333.88,107.8l1.95-1.52c0.53,1.71,2.17,3.41,5.15,3.41c1.77,0,2.95-0.68,2.95-2.02c0-1.36-1.36-1.8-3.13-2.2
			l-1.98-0.46c-2.14-0.5-4.46-1.52-4.46-4.28c0-2.73,2.11-4.4,5.36-4.4c3.16,0,5.36,1.67,6.2,3.66l-2.05,1.52
			c-0.74-1.77-2.17-2.88-4.31-2.88c-1.55,0-2.67,0.68-2.67,1.95c0,1.33,0.99,1.8,3.04,2.29l1.92,0.5c3.38,0.81,4.5,2.2,4.5,4.28
			c0,2.98-2.54,4.31-5.46,4.31C337.75,111.95,334.9,110.59,333.88,107.8z"/>
		<path class="st1" d="M357.47,111.64v-12.9h-2.45v-2.11h2.45v-1.4c0-3.01,1.92-4.68,4.74-4.68c2.29,0,3.72,1.24,4.34,2.2
			l-1.49,1.92c-0.59-1.08-1.55-1.89-2.88-1.89c-1.4,0-2.02,0.81-2.02,2.23v1.61H365v2.11h-4.84v12.9H357.47z"/>
		<path class="st1" d="M365.84,104.14c0-4.74,2.91-7.81,7.07-7.81s7.1,3.07,7.1,7.81s-2.95,7.81-7.1,7.81
			S365.84,108.88,365.84,104.14z M377.28,104.14c0-3.81-1.8-5.55-4.37-5.55c-2.54,0-4.31,1.74-4.31,5.55c0,3.78,1.77,5.55,4.31,5.55
			C375.48,109.69,377.28,107.92,377.28,104.14z"/>
		<path class="st1" d="M383.38,111.64V96.64h2.7v4c0.59-2.33,2.14-4.34,4.68-4.34c1.61,0,3.16,1.15,3.16,3.26
			c0,1.27-0.34,2.2-0.59,2.57h-2.95c0.5-0.43,0.9-1.36,0.9-2.2c0-0.87-0.46-1.61-1.55-1.61c-1.92,0-3.66,2.26-3.66,4.84v8.5H383.38z
			"/>
		<path class="st1" d="M403.6,111.64V90.87h8.31c4.09,0,7.32,2.26,7.32,7.04c0,4.43-3.22,6.7-7.32,6.7h-5.61v7.04H403.6z
			 M406.29,93.26v8.96h5.18c2.51,0,4.96-0.93,4.96-4.31c0-3.72-2.45-4.65-4.96-4.65H406.29z"/>
		<path class="st1" d="M420.89,104.14c0-4.74,2.91-7.81,7.04-7.81c4.25,0,6.82,2.82,6.82,7.22c0,0.46-0.06,0.93-0.12,1.21H423.5
			c0.16,3.16,1.92,4.96,4.59,4.96c3.01,0,4.22-1.64,4.81-2.95l1.64,1.86c-1.12,1.8-3.19,3.32-6.45,3.32
			C423.84,111.95,420.89,108.91,420.89,104.14z M423.56,102.81h8.78c-0.28-2.76-1.89-4.22-4.4-4.22
			C425.51,98.59,423.9,100.02,423.56,102.81z"/>
		<path class="st1" d="M438.16,111.64V96.64h2.7v4c0.59-2.33,2.14-4.34,4.68-4.34c1.61,0,3.16,1.15,3.16,3.26
			c0,1.27-0.34,2.2-0.59,2.57h-2.95c0.5-0.43,0.9-1.36,0.9-2.2c0-0.87-0.46-1.61-1.55-1.61c-1.92,0-3.66,2.26-3.66,4.84v8.5H438.16z
			"/>
		<path class="st1" d="M449.66,107.8l1.95-1.52c0.53,1.71,2.17,3.41,5.15,3.41c1.77,0,2.95-0.68,2.95-2.02c0-1.36-1.36-1.8-3.13-2.2
			l-1.98-0.46c-2.14-0.5-4.46-1.52-4.46-4.28c0-2.73,2.11-4.4,5.36-4.4c3.16,0,5.36,1.67,6.2,3.66l-2.05,1.52
			c-0.74-1.77-2.17-2.88-4.31-2.88c-1.55,0-2.67,0.68-2.67,1.95c0,1.33,0.99,1.8,3.04,2.29l1.92,0.5c3.38,0.81,4.5,2.2,4.5,4.28
			c0,2.98-2.54,4.31-5.46,4.31C453.54,111.95,450.69,110.59,449.66,107.8z"/>
		<path class="st1" d="M465.26,94.22v-3.35h2.7v3.35H465.26z M465.26,111.64V96.64h2.7v15.01H465.26z"/>
		<path class="st1" d="M471.14,108.51c0-2.02,1.52-3.29,3.66-4.25l5.43-2.42c-0.09-1.77-0.93-3.07-3.29-3.07
			c-2.14,0-3.57,1.24-4.34,2.88l-1.83-1.89c0.9-1.55,3.13-3.44,6.48-3.44c3.69,0,5.67,2.2,5.67,5.77v6.17
			c0,0.71,0.28,0.93,0.84,0.93h0.96v2.45h-1.74c-1.55,0-2.67-0.74-2.67-2.85v-1.05c-0.5,1.98-2.11,4.22-5.21,4.22
			C472.57,111.95,471.14,110.5,471.14,108.51z M475.98,109.72c2.54,0,4.34-1.67,4.34-3.84v-2.08l-4.37,2.05
			c-1.43,0.68-2.08,1.3-2.08,2.23C473.87,109.1,474.59,109.72,475.98,109.72z"/>
		<path class="st1" d="M487.85,111.64V96.64h2.7v4c0.59-2.33,2.2-4.31,5.15-4.31s4.78,1.77,4.78,4.96v10.36h-2.67v-9.7
			c0-1.95-0.77-3.32-3.32-3.32c-2.88,0-3.94,2.02-3.94,4.53v8.5H487.85z"/>
	</g>
</g>
</svg>
